<svg xmlns="http://www.w3.org/2000/svg" xmlns:xlink="http://www.w3.org/1999/xlink" preserveAspectRatio="xMidYMid" width="58.969" height="63" viewBox="0 0 58.969 63">
  <defs>
    <style>
      .cls-1 {
        fill: #666;
        fill-rule: evenodd;
      }
    </style>
  </defs>
  <path d="M23.947,7.410 C28.430,6.759 28.230,-0.071 22.999,-0.006 C22.148,0.225 21.536,0.384 20.965,0.858 C18.343,3.028 19.920,7.995 23.947,7.410 L23.947,7.410 ZM15.562,6.587 C19.146,6.064 18.971,0.470 14.751,0.529 C14.126,0.698 13.643,0.808 13.211,1.146 C10.957,2.908 12.154,7.085 15.562,6.587 L15.562,6.587 ZM9.225,7.780 C12.083,7.413 11.990,3.118 8.840,3.051 C8.406,3.155 8.032,3.180 7.712,3.380 C5.796,4.577 6.496,8.130 9.225,7.780 L9.225,7.780 ZM4.138,10.192 C6.660,9.899 6.512,6.373 3.891,6.423 C1.360,7.033 1.909,10.451 4.138,10.192 L4.138,10.192 ZM13.500,8.671 C12.047,9.047 10.755,9.109 9.527,9.575 C5.385,11.150 2.228,14.651 1.196,19.321 C0.756,21.313 0.654,24.085 0.921,26.284 L0.921,27.655 C1.036,28.797 1.151,29.940 1.265,31.082 C2.234,37.653 4.152,44.593 8.221,48.037 C9.865,49.429 12.477,51.296 15.837,50.888 C20.887,50.276 24.566,47.423 24.566,41.801 C24.566,40.061 24.367,38.792 23.851,37.606 C23.297,36.331 22.489,35.334 21.707,34.289 C21.329,33.784 20.829,33.308 20.566,32.699 C20.440,32.409 20.405,31.971 20.511,31.630 C20.953,30.210 22.962,28.716 24.044,27.819 C25.397,26.698 26.722,25.164 27.467,23.461 C28.162,21.870 28.687,19.502 28.374,17.101 C27.452,10.030 21.579,8.602 13.500,8.671 L13.500,8.671 ZM1.526,13.537 C3.191,13.323 3.151,10.696 1.265,10.740 C-0.692,11.273 -0.175,13.755 1.526,13.537 L1.526,13.537 ZM36.279,19.458 C40.610,18.673 40.310,11.979 35.124,12.043 C34.225,12.343 33.675,12.478 33.062,13.002 C30.457,15.229 32.287,20.182 36.279,19.458 L36.279,19.458 ZM44.431,18.650 C48.011,18.127 47.772,12.532 43.619,12.591 C42.972,12.766 42.445,12.881 41.997,13.235 C39.746,15.019 41.039,19.144 44.431,18.650 L44.431,18.650 ZM50.328,19.842 C53.186,19.475 53.094,15.180 49.943,15.113 C49.509,15.217 49.135,15.243 48.816,15.442 C46.899,16.639 47.599,20.192 50.328,19.842 L50.328,19.842 ZM55.002,22.254 C57.500,21.965 57.388,18.435 54.755,18.485 C52.208,19.099 52.756,22.515 55.002,22.254 L55.002,22.254 ZM47.001,20.938 C45.622,20.685 43.882,20.717 42.231,20.733 C41.544,20.801 40.856,20.870 40.169,20.938 C39.298,21.107 38.428,21.276 37.557,21.445 C32.417,22.893 29.580,26.694 30.821,33.371 C31.053,34.618 31.541,35.731 32.127,36.647 C32.807,37.709 33.643,38.763 34.588,39.566 C35.764,40.566 38.163,42.221 38.519,43.884 C38.774,45.070 36.684,47.051 36.155,47.818 C35.673,48.516 35.256,49.298 34.931,50.148 C34.393,51.558 34.181,53.625 34.505,55.384 C35.226,59.295 37.529,61.561 41.131,62.580 C42.025,62.834 43.208,63.099 44.430,62.951 C51.933,62.040 55.347,54.801 56.871,47.914 C57.200,46.429 57.362,44.916 57.655,43.322 C58.056,41.137 58.109,38.790 58.109,36.208 C58.108,34.252 58.107,32.443 57.683,30.945 C56.238,25.842 52.516,21.953 47.001,20.938 L47.001,20.938 ZM57.490,22.803 C55.533,23.335 56.050,25.817 57.751,25.599 C59.416,25.385 59.376,22.758 57.490,22.803 L57.490,22.803 Z" class="cls-1"/>
</svg>
