<svg xmlns="http://www.w3.org/2000/svg" xmlns:xlink="http://www.w3.org/1999/xlink" preserveAspectRatio="xMidYMid" width="59" height="59" viewBox="0 0 59 59">
  <defs>
    <style>
      .cls-1 {
        fill: #998b66;
        fill-rule: evenodd;
      }
    </style>
  </defs>
  <path d="M29.500,-0.000 C13.207,-0.000 -0.000,13.206 -0.000,29.500 C-0.000,45.791 13.207,59.000 29.500,59.000 C45.793,59.000 59.000,45.791 59.000,29.500 C59.000,13.206 45.793,-0.000 29.500,-0.000 L29.500,-0.000 ZM29.388,44.209 C27.706,44.209 26.343,42.807 26.343,41.079 C26.343,39.350 27.706,37.948 29.388,37.948 C31.070,37.948 32.433,39.350 32.433,41.079 C32.433,42.807 31.070,44.209 29.388,44.209 L29.388,44.209 ZM37.893,24.535 C37.473,25.344 36.973,26.040 36.395,26.626 C35.817,27.214 34.779,28.201 33.282,29.591 C32.868,29.982 32.536,30.326 32.287,30.624 C32.037,30.919 31.851,31.190 31.730,31.437 C31.607,31.682 31.513,31.930 31.447,32.174 C31.380,32.422 31.279,32.854 31.145,33.473 C30.914,34.786 30.189,35.442 28.972,35.442 C28.339,35.442 27.806,35.228 27.375,34.798 C26.942,34.369 26.726,33.732 26.726,32.885 C26.726,31.826 26.884,30.907 27.201,30.131 C27.517,29.353 27.937,28.672 28.461,28.086 C28.985,27.500 29.691,26.801 30.579,25.992 C31.358,25.287 31.922,24.754 32.268,24.394 C32.616,24.033 32.908,23.633 33.145,23.191 C33.382,22.749 33.501,22.269 33.501,21.753 C33.501,20.742 33.139,19.890 32.415,19.196 C31.690,18.502 30.756,18.154 29.612,18.154 C28.272,18.154 27.286,18.505 26.653,19.206 C26.020,19.906 25.485,20.936 25.046,22.303 C24.632,23.729 23.847,24.442 22.690,24.442 C22.009,24.442 21.433,24.192 20.965,23.693 C20.496,23.193 20.262,22.653 20.262,22.074 C20.262,20.874 20.633,19.659 21.375,18.428 C22.118,17.199 23.202,16.178 24.626,15.372 C26.050,14.563 27.712,14.159 29.611,14.159 C31.377,14.159 32.935,14.498 34.286,15.173 C35.638,15.847 36.682,16.767 37.418,17.926 C38.154,19.088 38.523,20.351 38.523,21.714 C38.523,22.788 38.313,23.729 37.893,24.535 L37.893,24.535 Z" class="cls-1"/>
</svg>
