<svg xmlns="http://www.w3.org/2000/svg" xmlns:xlink="http://www.w3.org/1999/xlink" preserveAspectRatio="xMidYMid" width="55" height="54" viewBox="0 0 55 54">
  <defs>
    <style>
      .cls-1 {
        fill: #09f;
        fill-rule: evenodd;
      }
    </style>
  </defs>
  <path d="M54.960,51.972 C53.581,45.671 50.117,39.950 45.206,35.863 C42.754,33.823 40.013,32.234 37.059,31.139 C36.485,30.926 35.905,30.732 35.320,30.559 C36.534,29.844 37.664,28.959 38.681,27.915 C41.687,24.827 43.342,20.720 43.342,16.352 C43.342,11.984 41.687,7.878 38.681,4.789 C35.674,1.701 31.678,-0.000 27.426,-0.000 C23.175,-0.000 19.179,1.701 16.173,4.789 C13.167,7.878 11.511,11.984 11.511,16.352 C11.511,20.720 13.167,24.827 16.173,27.915 C17.205,28.976 18.354,29.872 19.589,30.593 C19.033,30.760 18.481,30.945 17.934,31.149 C14.971,32.250 12.225,33.849 9.770,35.899 C4.850,40.011 1.392,45.760 0.034,52.088 C-0.159,52.988 0.395,53.770 1.271,53.969 C1.278,53.970 1.291,53.970 1.309,53.969 L53.401,53.995 C53.447,53.998 53.493,53.998 53.539,53.995 L53.612,53.995 L53.612,53.989 C53.651,53.984 53.691,53.978 53.730,53.969 C54.607,53.766 55.157,52.872 54.960,51.972 L54.960,51.972 Z" class="cls-1"/>
</svg>
