<svg xmlns="http://www.w3.org/2000/svg" xmlns:xlink="http://www.w3.org/1999/xlink" preserveAspectRatio="xMidYMid" width="59" height="63" viewBox="0 0 59 63">
  <defs>
    <style>
      .cls-1 {
        fill: #969;
        fill-rule: evenodd;
      }
    </style>
  </defs>
  <path d="M42.133,3.956 C42.283,1.922 40.784,0.152 38.786,0.004 C36.788,-0.143 35.046,1.387 34.897,3.422 C34.746,5.457 36.244,7.226 38.242,7.373 C40.240,7.521 41.983,5.991 42.133,3.956 L42.133,3.956 ZM-0.000,26.315 L-0.000,40.988 L14.750,40.988 L14.750,48.326 L29.499,48.326 L29.499,55.663 L44.250,55.663 L44.250,63.000 L59.000,63.000 L59.000,48.326 L44.250,48.326 L44.250,40.988 L39.000,40.988 L39.235,37.803 C39.235,37.803 39.377,31.670 34.534,25.169 L34.666,23.371 L35.920,18.405 C35.920,18.405 37.072,17.226 37.698,18.356 C37.698,18.356 37.409,19.871 40.289,21.709 L43.720,23.318 C43.720,23.318 45.609,24.180 46.042,23.128 C46.042,23.128 46.867,21.562 45.835,21.125 L42.790,19.093 C42.790,19.093 39.269,16.304 39.685,13.081 C39.685,13.081 39.309,9.462 36.211,8.149 C36.211,8.149 34.715,6.774 32.721,7.350 L24.068,10.664 C24.068,10.664 22.802,11.293 22.735,12.191 C22.669,13.090 22.110,20.660 22.110,20.660 C22.110,20.660 21.771,22.261 22.851,22.342 C22.851,22.342 24.751,21.849 24.791,21.310 L25.353,14.914 C25.353,14.914 25.610,14.414 27.045,13.616 L28.538,12.620 C28.538,12.620 30.206,11.658 29.747,13.071 C29.747,13.071 26.633,17.087 26.442,19.693 L25.963,26.162 L22.085,33.652 L14.750,33.652 L14.750,26.315 L-0.000,26.315 L-0.000,26.315 ZM27.778,33.652 L28.694,32.147 C28.694,32.147 30.059,29.289 30.957,30.348 L34.272,34.727 C34.272,34.727 34.919,36.507 34.754,40.988 L29.499,40.988 L29.499,33.652 L27.778,33.652 L27.778,33.652 Z" class="cls-1"/>
</svg>
