<svg xmlns="http://www.w3.org/2000/svg" xmlns:xlink="http://www.w3.org/1999/xlink" preserveAspectRatio="xMidYMid" width="44" height="56" viewBox="0 0 44 56">
  <defs>
    <style>
      .cls-1 {
        fill: #c03;
        fill-rule: evenodd;
      }
    </style>
  </defs>
  <path d="M42.686,24.557 C39.635,25.414 36.568,26.265 33.399,26.528 C31.793,26.663 31.237,25.278 30.585,24.141 C29.088,21.522 29.105,21.512 27.135,23.524 C23.632,27.104 23.608,27.121 26.389,31.212 C27.574,32.955 28.894,34.597 30.121,36.311 C31.441,38.158 30.414,40.447 28.222,40.926 C23.948,41.861 19.696,42.900 15.444,43.953 C13.835,44.351 11.964,43.336 11.646,41.755 C11.376,40.413 12.663,38.885 14.233,38.551 C16.380,38.090 18.498,37.486 20.652,37.065 C22.259,36.752 21.660,36.085 20.976,35.424 C18.768,33.281 16.490,31.210 14.315,29.033 C12.548,27.265 12.479,25.146 13.953,23.095 C15.961,20.301 18.527,18.073 20.931,15.682 C21.993,14.626 22.200,13.989 20.762,12.939 C18.555,11.331 16.506,11.351 14.246,12.626 C12.896,13.388 11.478,14.018 10.071,14.661 C8.427,15.412 6.762,15.007 6.103,13.744 C5.293,12.197 5.702,10.809 7.625,9.837 C10.741,8.261 13.933,6.842 17.138,5.468 C18.349,4.950 19.339,6.025 20.380,6.456 C22.993,7.536 25.451,9.012 28.420,9.987 C26.572,5.220 26.959,2.816 29.692,0.936 C31.829,-0.535 34.732,-0.254 36.657,1.605 C38.562,3.444 38.948,6.574 37.544,8.960 C36.325,11.032 33.812,12.602 29.637,10.917 C30.816,12.931 32.297,14.292 32.935,16.223 C33.428,17.718 34.061,19.389 35.142,20.392 C36.394,21.553 37.909,19.792 39.387,19.882 C40.955,19.977 42.831,18.870 43.805,21.205 C44.302,22.397 43.841,24.233 42.686,24.557 ZM14.480,19.046 C12.818,21.555 10.965,22.447 8.434,22.161 C6.374,21.930 4.271,22.101 2.188,22.109 C1.086,22.113 0.115,21.692 0.074,20.511 C0.029,19.207 1.056,19.023 2.146,19.032 C6.157,19.067 10.168,19.046 14.480,19.046 ZM1.216,25.115 C3.929,24.721 6.667,24.750 9.382,25.089 C10.399,25.217 10.639,26.173 10.619,27.115 C10.591,28.404 9.596,27.877 9.007,27.921 C7.840,28.009 6.662,27.947 5.489,27.947 L5.489,27.938 C4.186,27.938 2.879,27.904 1.578,27.951 C0.684,27.982 0.220,27.423 0.039,26.698 C-0.195,25.773 0.561,25.210 1.216,25.115 ZM2.261,31.208 C5.579,31.265 8.901,31.329 12.215,31.191 C13.945,31.120 14.786,32.314 15.723,33.339 C16.509,34.197 15.638,34.292 15.042,34.297 C12.831,34.316 10.619,34.304 8.406,34.304 L8.406,34.318 C6.389,34.318 4.370,34.283 2.354,34.331 C1.194,34.359 0.085,34.052 0.043,32.784 C-0.002,31.470 1.079,31.187 2.261,31.208 ZM21.150,44.509 C21.438,44.051 21.884,43.648 22.421,43.327 C24.165,42.287 26.307,42.953 27.831,41.775 C28.959,41.918 29.601,42.264 28.872,43.339 C26.246,47.213 23.628,51.097 20.923,54.912 C19.964,56.268 18.511,56.283 17.316,55.353 C16.198,54.480 15.857,53.231 16.744,51.808 C18.248,49.398 19.638,46.912 21.150,44.509 Z" class="cls-1"/>
</svg>
