<svg xmlns="http://www.w3.org/2000/svg" xmlns:xlink="http://www.w3.org/1999/xlink" preserveAspectRatio="xMidYMid" width="59" height="63" viewBox="0 0 59 63">
  <defs>
    <style>
      .cls-1 {
        fill: #29166f;
        fill-rule: evenodd;
      }
    </style>
  </defs>
  <path d="M35.036,7.316 C37.055,7.316 38.692,5.678 38.692,3.659 C38.692,1.638 37.055,-0.000 35.036,-0.000 C33.017,-0.000 31.381,1.638 31.381,3.659 C31.381,5.678 33.017,7.316 35.036,7.316 L35.036,7.316 ZM44.250,26.347 L44.250,33.678 L37.522,33.678 C36.791,31.384 35.373,28.272 32.629,25.160 L32.629,23.376 L33.521,18.379 C33.521,18.379 34.590,17.131 35.304,18.202 C35.304,18.202 35.125,19.718 38.157,21.324 L41.723,22.662 C41.723,22.662 43.685,23.376 44.041,22.305 C44.041,22.305 44.754,20.700 43.685,20.343 L40.475,18.558 C40.475,18.558 36.731,16.060 36.909,12.848 C36.909,12.848 36.263,9.301 33.054,8.230 C33.054,8.230 31.448,6.981 29.487,7.695 L21.039,11.599 C21.039,11.599 19.813,12.312 19.813,13.205 C19.813,14.097 19.813,21.614 19.813,21.614 C19.813,21.614 19.590,23.220 20.683,23.220 C20.683,23.220 22.554,22.595 22.554,22.060 L22.644,15.703 C22.644,15.703 22.867,15.190 24.249,14.298 L25.675,13.205 C25.675,13.205 27.280,12.134 26.923,13.562 C26.923,13.562 24.093,17.754 24.093,20.343 L24.093,26.767 L18.231,40.239 C18.231,40.239 18.027,40.555 17.868,41.008 L14.750,41.008 L14.750,48.339 L-0.000,48.339 L-0.000,63.000 L14.750,63.000 L14.750,55.670 L29.501,55.670 L29.501,48.339 L44.250,48.339 L44.250,41.008 L59.000,41.008 L59.000,26.347 L44.250,26.347 L44.250,26.347 ZM29.501,33.678 L29.501,41.008 L22.836,41.008 L27.280,32.477 C27.280,32.477 28.439,29.554 29.419,30.536 L32.232,33.678 L29.501,33.678 L29.501,33.678 Z" class="cls-1"/>
</svg>
